<svg xmlns="http://www.w3.org/2000/svg" viewBox="0 0 64 64"><g id="Budget-Calculator-Cost-Money_Bag-Finance" data-name="Budget-Calculator-Cost-Money Bag-Finance"><path d="M30,15a2.006,2.006,0,0,1,2,2,2.015,2.015,0,0,1-2,2H22a2.006,2.006,0,0,1-2-2,2.015,2.015,0,0,1,2-2Z" style="fill:#00b39d"/><path d="M36,5,30,15H22L16,5c2.5,0,2.5-2,5-2s2.5,2,5.01,2S28.51,3,31,3,33.5,5,36,5Z" style="fill:#00ccb3"/><path d="M49,58.16A3.128,3.128,0,0,1,45.83,61H6.17A3.128,3.128,0,0,1,3,58.16a2.988,2.988,0,0,1,1.25-2.59A4,4,0,0,0,6,52.38V33A14,14,0,0,1,20,19H32A14,14,0,0,1,46,33V52.38a4,4,0,0,0,1.75,3.19A2.988,2.988,0,0,1,49,58.16Z" style="fill:#00ccb3"/><rect x="37" y="27" width="24" height="34" rx="2" style="fill:#5aaae7"/><path d="M58,45H44a1,1,0,0,0-1,1V58a1,1,0,0,0,1,1H58a1,1,0,0,0,1-1V46A1,1,0,0,0,58,45Z" style="fill:#3d9ae2"/><path d="M49,50v7H42a1,1,0,0,1-1-1V50Z" style="fill:#329bed"/><path d="M57,50v6a1,1,0,0,1-1,1H49V50Z" style="fill:#158be6"/><path d="M57,44v6H49V43h7A1,1,0,0,1,57,44Z" style="fill:#329bed"/><path d="M49,43v7H41V44a1,1,0,0,1,1-1Z" style="fill:#158be6"/><rect x="43" y="33" width="16" height="8" rx="1" style="fill:#3d9ae2"/><rect x="41" y="31" width="16" height="8" rx="1" style="fill:#c2dff6"/><circle cx="24" cy="42" r="9" style="fill:#00b39d"/><path d="M22,57a2.006,2.006,0,0,1,2,2v2H12V59a2.006,2.006,0,0,1,2-2,2.006,2.006,0,0,1-2-2V53a2.006,2.006,0,0,1,2-2h8a2.006,2.006,0,0,1,2,2v2A2.006,2.006,0,0,1,22,57Z" style="fill:#00b39d"/><path d="M35,57a2.006,2.006,0,0,1,2,2v2H25V59a2.006,2.006,0,0,1,2-2,2.006,2.006,0,0,1-2-2V53a2.006,2.006,0,0,1,2-2h8a2.006,2.006,0,0,1,2,2v2A2.006,2.006,0,0,1,35,57Z" style="fill:#00b39d"/><circle cx="22" cy="40" r="9" style="fill:#ffd422"/><path d="M20,55a2.006,2.006,0,0,1,2,2v2a2.006,2.006,0,0,1-2,2H12a2.006,2.006,0,0,1-2-2V57a2.006,2.006,0,0,1,2-2h8Z" style="fill:#ffa733"/><path d="M20,49a2.006,2.006,0,0,1,2,2v2a2.006,2.006,0,0,1-2,2H12a2.006,2.006,0,0,1-2-2V51a2.006,2.006,0,0,1,2-2h8Z" style="fill:#ee8700"/><path d="M32,55a2.006,2.006,0,0,1,2,2v2a2.006,2.006,0,0,1-2,2H24a2.006,2.006,0,0,1-2-2V57a2.006,2.006,0,0,1,2-2h8Z" style="fill:#ffa733"/><path d="M32,49a2.006,2.006,0,0,1,2,2v2a2.006,2.006,0,0,1-2,2H24a2.006,2.006,0,0,1-2-2V51a2.006,2.006,0,0,1,2-2h8Z" style="fill:#ee8700"/><path d="M56,42H42a2,2,0,0,0-2,2V56a2,2,0,0,0,2,2H56a2,2,0,0,0,2-2V44A2,2,0,0,0,56,42Zm0,7H50V44h6Zm-8-5v5H42V44Zm-6,7h6v5H42Zm8,5V51h6v5Z"/><path d="M59,26H45.26a15.091,15.091,0,0,0-12.45-7.97A2.942,2.942,0,0,0,33,17a3,3,0,0,0-1.49-2.58l5.35-8.91A1,1,0,0,0,36,4a2.557,2.557,0,0,1-1.87-.78,4.612,4.612,0,0,0-6.25,0,2.644,2.644,0,0,1-3.75,0,4.612,4.612,0,0,0-6.25,0A2.6,2.6,0,0,1,16,4a1,1,0,0,0-.86,1.51l5.35,8.91A3,3,0,0,0,19,17a2.96,2.96,0,0,0,.2,1.04A15.006,15.006,0,0,0,5,33V52.38a3.021,3.021,0,0,1-1.33,2.38A4,4,0,0,0,2,58.22,4.158,4.158,0,0,0,6.17,62H59a3.009,3.009,0,0,0,3-3V29A3.009,3.009,0,0,0,59,26ZM17.6,5.73a5.568,5.568,0,0,0,1.53-.95A2.557,2.557,0,0,1,21,4a2.6,2.6,0,0,1,1.88.78,4.612,4.612,0,0,0,6.25,0,2.644,2.644,0,0,1,3.75,0,5.357,5.357,0,0,0,1.52.95L29.43,14H22.57ZM31,17a1,1,0,0,1-1,1H22a1,1,0,0,1,0-2h8A1,1,0,0,1,31,17ZM21,59a1,1,0,0,1-1,1H12a1,1,0,0,1-1-1V57a1,1,0,0,1,1-1h1v2h2V56h2v2h2V56h1a1,1,0,0,1,1,1Zm0-6a1,1,0,0,1-1,1H12a1,1,0,0,1-1-1V51a1,1,0,0,1,1-1h1v2h2V50h2v2h2V50h1a1,1,0,0,1,1,1ZM14,40a8,8,0,1,1,8,8A8.011,8.011,0,0,1,14,40ZM33,59a1,1,0,0,1-1,1H24a1,1,0,0,1-1-1V57a1,1,0,0,1,1-1h1v2h2V56h2v2h2V56h1a1,1,0,0,1,1,1Zm0-6a1,1,0,0,1-1,1H24a1,1,0,0,1-1-1V51a1,1,0,0,1,1-1h1v2h2V50h2v2h2V50h1a1,1,0,0,1,1,1Zm3.18,7H34.82A3,3,0,0,0,35,59V57a2.974,2.974,0,0,0-.78-2A2.974,2.974,0,0,0,35,53V51a3.009,3.009,0,0,0-3-3H27.97a10,10,0,1,0-11.94,0H12a3.009,3.009,0,0,0-3,3v2a2.974,2.974,0,0,0,.78,2A2.974,2.974,0,0,0,9,57v2a3,3,0,0,0,.18,1H6.17A2.127,2.127,0,0,1,4,58.11a2,2,0,0,1,.84-1.73,5,5,0,0,0,2.16-4V33A13.012,13.012,0,0,1,20,20H32a13.059,13.059,0,0,1,10.94,6H39a3.009,3.009,0,0,0-3,3V59A3,3,0,0,0,36.18,60ZM60,59a1,1,0,0,1-1,1H39a1,1,0,0,1-1-1V29a1,1,0,0,1,1-1H59a1,1,0,0,1,1,1Z"/><path d="M56,30H42a2,2,0,0,0-2,2v6a2,2,0,0,0,2,2H56a2,2,0,0,0,2-2V32A2,2,0,0,0,56,30Zm0,8H42V32H56Z"/><rect x="52" y="34" width="2" height="2"/><rect x="48" y="34" width="2" height="2"/><rect x="44" y="34" width="2" height="2"/><path d="M21,37h2a1,1,0,0,1,1,1h2a3,3,0,0,0-3-3V34H21v1a3,3,0,0,0,0,6h2a1,1,0,0,1,0,2H21a1,1,0,0,1-1-1H18a3,3,0,0,0,3,3v1h2V45a3,3,0,0,0,0-6H21a1,1,0,0,1,0-2Z"/></g></svg>